<svg width="19" height="44" xmlns="http://www.w3.org/2000/svg" xmlns:xlink="http://www.w3.org/1999/xlink" xml:space="preserve" overflow="hidden"><defs><linearGradient x1="0.335425" y1="1.52603" x2="2.30265" y2="1.52603" gradientUnits="userSpaceOnUse" spreadMethod="pad" id="fill0"><stop offset="0" stop-color="#969496"/><stop offset="0.57"/><stop offset="1"/></linearGradient><linearGradient x1="12.4621" y1="1.51999" x2="14.4263" y2="1.51999" gradientUnits="userSpaceOnUse" spreadMethod="pad" id="fill1"><stop offset="0" stop-color="#969496"/><stop offset="0.57"/><stop offset="1"/></linearGradient></defs><g transform="translate(-811 -633)"><path d="M16.463 3.69874C16.3059 3.54463 16.0853 3.4449 15.8315 3.4449 15.8315 3.4449 15.3449 3.21222 14.4988 2.94932 13.3838 2.59879 11.6462 2.1999 9.55205 2.1999 7.45792 2.1999 5.5602 2.60785 4.33937 2.96141 3.43584 3.22129 2.88888 3.4449 2.88888 3.4449 2.69549 3.4449 2.52324 3.50534 2.37215 3.60506 2.17271 3.74105 2.03672 3.95862 2.03672 4.20943L2.03672 42.1004C2.03672 43.5841 4.36657 43.7714 4.36657 43.7714L14.6862 43.7714C14.6862 43.7714 16.6897 43.439 16.6897 42.0973L16.6897 4.20943C16.6897 4.01301 16.602 3.83472 16.466 3.69874Z" fill="#333333" fill-opacity="0.5" transform="matrix(1.13843 0 0 1 811 633.113)"/><path d="M14.4263 1.49884C14.3961 1.88261 14.251 2.17271 14.0093 2.26336 13.5318 2.44165 12.8549 1.80706 12.4953 0.846117 12.4832 0.812877 12.4742 0.779636 12.4651 0.749418 11.3501 0.398884 9.60947 0 7.51835 0 5.42723 0 3.52045 0.407949 2.30265 0.761505 2.29358 0.791724 2.28754 0.81892 2.27545 0.846117 1.91585 1.80404 1.23593 2.43863 0.761505 2.26336 0.498605 2.16364 0.353556 1.83728 0.335425 1.40516 0.132961 1.54114 1.34197e-16 1.76174 1.34197e-16 2.00953L1.34197e-16 39.9005C1.34197e-16 41.3872 2.32984 41.5746 2.32984 41.5746L12.6494 41.5746C12.6494 41.5746 14.6499 41.2421 14.6499 39.9005L14.6499 2.00953C14.6499 1.81009 14.5623 1.6318 14.4233 1.49884Z" fill="#77A7FB" transform="matrix(1.13843 0 0 1 811 633.113)"/><path d="M0.761505 2.26336C1.23896 2.44165 1.91585 1.80706 2.27545 0.846117 2.28754 0.815898 2.29358 0.788702 2.30265 0.761505 1.39911 1.02138 0.852161 1.245 0.852161 1.245 0.658762 1.245 0.486517 1.30544 0.335425 1.40516 0.353556 1.83728 0.495583 2.16364 0.761505 2.26336Z" fill="url(#fill0)" transform="matrix(1.13843 0 0 1 811 633.113)"/><path d="M14.0093 2.26336C14.251 2.17271 14.3961 1.88261 14.4263 1.49884 14.2692 1.3417 14.0486 1.245 13.7947 1.245 13.7947 1.245 13.3082 1.01534 12.4621 0.75244 12.4742 0.782658 12.4832 0.815898 12.4923 0.849139 12.8519 1.80706 13.5318 2.44165 14.0063 2.26638Z" fill="url(#fill1)" transform="matrix(1.13843 0 0 1 811 633.113)"/><path d="M14.1362 39.3686C14.1604 40.943 10.8907 41.0608 10.8907 41.0608L3.75615 41.0608C3.75615 41.0608 0.486517 41.3419 0.510692 39.3686L0.510692 3.65039C0.510692 3.26662 0.86727 2.95234 1.30846 2.95234 1.30846 2.95234 3.66248 2.26336 7.09227 2.26336 10.5221 2.26336 13.3414 2.95234 13.3414 2.95234 13.7826 2.95234 14.1362 3.26359 14.1362 3.64737L14.1362 39.3686Z" fill="#4385F5" transform="matrix(1.13843 0 0 1 811 633.113)"/><path d="M2.12134 8.44606C2.35704 5.59948 0.534867 3.46304 0.534867 3.46304L0.534867 8.49441C0.534867 8.49441 0.909576 8.49441 2.12134 8.44908Z" fill="#00374B" transform="matrix(1.13843 0 0 1 811 633.113)"/><path d="M0.486517 14.2782 2.07601 14.2782 2.07601 18.5269 0.486517 18.5269Z" fill="#00374B" transform="matrix(1.13843 0 0 1 811 633.113)"/><path d="M0.486517 18.8986 2.07601 18.8986 2.07601 23.658 0.486517 23.658Z" fill="#00374B" transform="matrix(1.13843 0 0 1 811 633.113)"/><path d="M0.486517 35.7454 0.486517 39.6617 2.07903 39.0513 2.07903 35.7454 0.486517 35.7454Z" fill="#00374B" transform="matrix(1.13843 0 0 1 811 633.113)"/><path d="M0.486517 9.09576 2.07601 9.09576 2.07601 13.8582 0.486517 13.8582Z" fill="#00374B" transform="matrix(1.13843 0 0 1 811 633.113)"/><path d="M12.456 8.44304C12.2234 5.59646 14.0455 3.45699 14.0455 3.45699L14.0455 8.49139C14.0455 8.49139 13.6708 8.49139 12.456 8.44304Z" fill="#00374B" transform="matrix(1.13843 0 0 1 811 633.113)"/><path d="M12.5014 14.2782 14.0909 14.2782 14.0909 18.5269 12.5014 18.5269Z" fill="#00374B" transform="matrix(1.13843 0 0 1 811 633.113)"/><path d="M12.5014 18.8986 14.0909 18.8986 14.0909 23.658 12.5014 23.658Z" fill="#00374B" transform="matrix(1.13843 0 0 1 811 633.113)"/><path d="M0.486517 24.0297 2.07601 24.0297 2.07601 28.7891 0.486517 28.7891Z" fill="#00374B" transform="matrix(1.13843 0 0 1 811 633.113)"/><path d="M12.5014 24.0297 14.0909 24.0297 14.0909 28.7861 12.5014 28.7861Z" fill="#00374B" transform="matrix(1.13843 0 0 1 811 633.113)"/><path d="M0.486517 29.1638 2.07601 29.1638 2.07601 35.3707 0.486517 35.3707Z" fill="#00374B" transform="matrix(1.13843 0 0 1 811 633.113)"/><path d="M12.5014 29.1638 14.0909 29.1638 14.0909 35.3707 12.5014 35.3707Z" fill="#00374B" transform="matrix(1.13843 0 0 1 811 633.113)"/><path d="M14.0878 35.7424 14.0878 39.6617 12.5014 39.0513 12.5014 35.7424 14.0878 35.7424Z" fill="#00374B" transform="matrix(1.13843 0 0 1 811 633.113)"/><path d="M12.5014 9.09576 14.0909 9.09576 14.0909 13.8582 12.5014 13.8582Z" fill="#00374B" transform="matrix(1.13843 0 0 1 811 633.113)"/><path d="M1.0516 3.03393 2.49302 5.97117 12.2475 6.06484 13.2508 2.93723C13.2508 2.93723 12.4832 2.28452 7.39748 2.19386 2.31171 2.10018 1.05462 3.03393 1.05462 3.03393Z" fill="#00374B" transform="matrix(1.13843 0 0 1 811 633.113)"/><path d="M1.00023 40.1724C1.46862 39.8068 2.28754 39.2175 2.28754 39.2175L12.3231 39.1964C12.3231 39.1964 12.7885 39.6557 13.1813 40.1029 13.837 41.2059 0.985122 41.4688 1.00325 40.1724Z" fill="#00374B" transform="matrix(1.13843 0 0 1 811 633.113)"/><path d="M6.63295 6.74174 7.70571 6.74174 7.70571 38.1689 6.63295 38.1689Z" fill="#77A7FB" transform="matrix(1.13843 0 0 1 811 633.113)"/><path d="M3.25151 6.74174C2.86471 6.74174 2.54439 7.0681 2.54439 7.47L2.54439 37.214C2.54439 37.6159 2.86471 38.172 3.25151 38.172L3.41166 38.172 3.41166 6.74174 3.25151 6.74174Z" fill="#77A7FB" transform="matrix(1.13843 0 0 1 811 633.113)"/><path d="M5.56322 6.74174 6.63295 6.74174 6.63295 38.1689 5.56322 38.1689Z" fill="#B2CDFB" transform="matrix(1.13843 0 0 1 811 633.113)"/><path d="M3.41469 6.74174 4.48744 6.74174 4.48744 38.172 3.41469 38.172Z" fill="#B2CDFB" transform="matrix(1.13843 0 0 1 811 633.113)"/><path d="M4.48442 6.74174 5.5602 6.74174 5.5602 38.172 4.48442 38.172Z" fill="#77A7FB" transform="matrix(1.13843 0 0 1 811 633.113)"/><path d="M11.0902 6.74174 10.927 6.74174 10.927 38.1689 11.0902 38.1689C11.4709 38.1689 11.7912 37.6159 11.7912 37.214L11.7912 7.46698C11.7912 7.06508 11.4709 6.74174 11.0902 6.74174Z" fill="#77A7FB" transform="matrix(1.13843 0 0 1 811 633.113)"/><path d="M9.85122 6.74174 10.927 6.74174 10.927 38.1689 9.85122 38.1689Z" fill="#B2CDFB" transform="matrix(1.13843 0 0 1 811 633.113)"/><path d="M7.70571 6.74174 8.77846 6.74174 8.77846 38.1689 7.70571 38.1689Z" fill="#B2CDFB" transform="matrix(1.13843 0 0 1 811 633.113)"/><path d="M8.78148 6.74174 9.85424 6.74174 9.85424 38.1689 8.78148 38.1689Z" fill="#77A7FB" transform="matrix(1.13843 0 0 1 811 633.113)"/></g></svg>