<svg width="17" height="39" xmlns="http://www.w3.org/2000/svg" xmlns:xlink="http://www.w3.org/1999/xlink" xml:space="preserve" overflow="hidden"><defs><clipPath id="clip0"><path d="M829.624 435.298 843.89 434.614 845.693 472.225 831.427 472.909Z" fill-rule="evenodd" clip-rule="evenodd"/></clipPath><clipPath id="clip1"><path d="M829.624 435.298 843.89 434.614 845.693 472.225 831.427 472.909Z" fill-rule="evenodd" clip-rule="evenodd"/></clipPath><clipPath id="clip2"><path d="M829.624 435.298 843.89 434.614 845.693 472.225 831.427 472.909Z" fill-rule="evenodd" clip-rule="evenodd"/></clipPath><linearGradient x1="829.978" y1="436.685" x2="831.66" y2="436.605" gradientUnits="userSpaceOnUse" spreadMethod="pad" id="fill3"><stop offset="0" stop-color="#969496"/><stop offset="0.57"/><stop offset="1"/></linearGradient><linearGradient x1="840.344" y1="436.183" x2="842.022" y2="436.103" gradientUnits="userSpaceOnUse" spreadMethod="pad" id="fill4"><stop offset="0" stop-color="#969496"/><stop offset="0.57"/><stop offset="1"/></linearGradient></defs><g transform="translate(-829 -434)"><g clip-path="url(#clip0)"><g clip-path="url(#clip1)"><g clip-path="url(#clip2)"><path d="M843.853 437.882C843.712 437.756 843.519 437.68 843.302 437.691 843.302 437.691 842.877 437.512 842.143 437.322 841.176 437.068 839.674 436.798 837.884 436.884 836.094 436.97 834.488 437.396 833.459 437.748 832.698 438.007 832.239 438.221 832.239 438.221 832.074 438.229 831.929 438.288 831.804 438.379 831.639 438.504 831.532 438.695 831.542 438.909L833.095 471.298C833.156 472.566 835.155 472.631 835.155 472.631L843.976 472.208C843.976 472.208 845.675 471.842 845.62 470.695L844.067 438.309C844.059 438.141 843.977 437.992 843.855 437.882Z" fill="#333333" fill-opacity="0.5"/><path d="M842.022 436.085C842.012 436.414 841.899 436.668 841.696 436.755 841.296 436.927 840.691 436.413 840.344 435.606 840.333 435.578 840.323 435.55 840.315 435.525 839.347 435.271 837.843 435.001 836.055 435.087 834.268 435.172 832.655 435.599 831.628 435.951 831.622 435.978 831.618 436.001 831.609 436.025 831.34 436.858 830.785 437.429 830.372 437.298 830.144 437.224 830.006 436.951 829.973 436.582 829.806 436.707 829.701 436.901 829.711 437.112L831.264 469.501C831.325 470.772 833.324 470.837 833.324 470.837L842.145 470.414C842.145 470.414 843.841 470.048 843.786 468.901L842.234 436.512C842.226 436.342 842.143 436.193 842.019 436.085Z" fill="#77A7FB"/><path d="M830.372 437.298C830.788 437.431 831.341 436.861 831.609 436.025 831.618 435.998 831.622 435.975 831.628 435.951 830.867 436.211 830.408 436.424 830.408 436.424 830.243 436.432 830.098 436.491 829.973 436.582 830.006 436.951 830.141 437.224 830.372 437.298Z" fill="url(#fill3)"/><path d="M841.696 436.755C841.899 436.668 842.012 436.414 842.022 436.085 841.881 435.957 841.688 435.883 841.471 435.894 841.471 435.894 841.046 435.717 840.312 435.527 840.324 435.553 840.333 435.581 840.342 435.609 840.688 436.413 841.296 436.927 841.694 436.758Z" fill="url(#fill4)"/><path d="M843.326 468.467C843.411 469.812 840.621 470.047 840.621 470.047L834.522 470.339C834.522 470.339 831.739 470.713 831.679 469.025L830.215 438.494C830.199 438.166 830.491 437.883 830.868 437.865 830.868 437.865 832.852 437.179 835.784 437.039 838.716 436.898 841.154 437.372 841.154 437.372 841.531 437.354 841.846 437.605 841.862 437.933L843.326 468.467Z" fill="#4385F5"/><path d="M831.788 442.527C831.873 440.085 830.228 438.333 830.228 438.333L830.434 442.634C830.434 442.634 830.754 442.618 831.788 442.53Z" fill="#00374B"/><path d="M830.63 447.58 831.989 447.514 832.163 451.146 830.804 451.211Z" fill="#00374B"/><path d="M830.819 451.529 832.178 451.464 832.373 455.532 831.014 455.597Z" fill="#00374B"/><path d="M831.51 465.929 831.67 469.277 833.006 468.69 832.871 465.864 831.51 465.929Z" fill="#00374B"/><path d="M830.417 443.15 831.776 443.085 831.971 447.155 830.613 447.221Z" fill="#00374B"/><path d="M840.622 442.101C840.307 439.678 841.776 437.774 841.776 437.774L841.983 442.077C841.983 442.077 841.662 442.093 840.622 442.101Z" fill="#00374B"/><path d="M840.9 447.087 842.259 447.022 842.433 450.654 841.074 450.719Z" fill="#00374B"/><path d="M841.089 451.037 842.448 450.972 842.643 455.04 841.284 455.105Z" fill="#00374B"/><path d="M831.029 455.915 832.388 455.85 832.583 459.918 831.224 459.983Z" fill="#00374B"/><path d="M841.3 455.423 842.658 455.358 842.853 459.423 841.494 459.488Z" fill="#00374B"/><path d="M831.24 460.304 832.599 460.238 832.853 465.544 831.494 465.609Z" fill="#00374B"/><path d="M841.51 459.811 842.869 459.746 843.123 465.052 841.764 465.117Z" fill="#00374B"/><path d="M843.136 465.369 843.296 468.72 841.915 468.263 841.78 465.434 843.136 465.369Z" fill="#00374B"/><path d="M840.688 442.657 842.046 442.592 842.241 446.663 840.883 446.728Z" fill="#00374B"/><path d="M830.652 437.945 832.005 440.397 840.346 440.077 841.076 437.362C841.076 437.362 840.393 436.836 836.042 436.967 831.691 437.095 830.655 437.945 830.655 437.945Z" fill="#00374B"/><path d="M832.13 469.692C832.516 469.361 833.191 468.823 833.191 468.823L841.769 468.394C841.769 468.394 842.185 468.768 842.539 469.134 843.145 470.05 832.17 470.801 832.133 469.692Z" fill="#00374B"/><path d="M835.575 440.886 836.492 440.842 837.78 467.705 836.863 467.749Z" fill="#77A7FB"/><path d="M832.684 441.024C832.354 441.04 832.093 441.332 832.11 441.676L833.329 467.1C833.345 467.444 833.642 467.906 833.972 467.89L834.109 467.884 832.821 441.018 832.684 441.024Z" fill="#77A7FB"/><path d="M834.66 440.93 835.575 440.886 836.863 467.749 835.948 467.793Z" fill="#B2CDFB"/><path d="M832.824 441.018 833.741 440.974 835.029 467.84 834.112 467.884Z" fill="#B2CDFB"/><path d="M833.738 440.974 834.658 440.93 835.946 467.796 835.026 467.84Z" fill="#77A7FB"/><path d="M839.385 440.703 839.245 440.71 840.533 467.573 840.673 467.566C840.998 467.551 841.249 467.065 841.233 466.721L840.014 441.294C839.997 440.951 839.71 440.687 839.385 440.703Z" fill="#77A7FB"/><path d="M838.326 440.754 839.245 440.71 840.533 467.573 839.614 467.617Z" fill="#B2CDFB"/><path d="M836.492 440.842 837.409 440.798 838.697 467.661 837.78 467.705Z" fill="#B2CDFB"/><path d="M837.411 440.798 838.328 440.754 839.616 467.617 838.699 467.661Z" fill="#77A7FB"/></g></g></g></g></svg>